<?xml version="1.0" encoding="UTF-8"?>
<svg width="42.943" height="43.139" version="1.1" viewBox="0 0 11.362 11.414" xmlns="http://www.w3.org/2000/svg" xmlns:cc="http://creativecommons.org/ns#" xmlns:dc="http://purl.org/dc/elements/1.1/" xmlns:rdf="http://www.w3.org/1999/02/22-rdf-syntax-ns#">
 <defs>
  <linearGradient id="linearGradient2628" x2="1" gradientTransform="matrix(0,-67.566,67.566,0,-9.7242,182.18)" gradientUnits="userSpaceOnUse">
   <stop stop-color="#20b038" offset="0"/>
   <stop stop-color="#60d66a" offset="1"/>
  </linearGradient>
  <linearGradient id="linearGradient2630" x2="1" gradientTransform="matrix(0,-69.988,69.988,0,-9.724,183.4)" gradientUnits="userSpaceOnUse">
   <stop stop-color="#f9f9f9" offset="0"/>
   <stop stop-color="#fff" offset="1"/>
  </linearGradient>
 </defs>
 <metadata>
  <rdf:RDF>
   <cc:Work rdf:about="">
    <dc:format>image/svg+xml</dc:format>
    <dc:type rdf:resource="http://purl.org/dc/dcmitype/StillImage"/>
    <dc:title/>
   </cc:Work>
  </rdf:RDF>
 </metadata>
 <g transform="translate(79.453 -200.43)">
  <g transform="matrix(.26458 0 0 .26458 -59.753 156.95)">
   <g transform="matrix(.61632 0 0 .61632 -46.994 94.459)">
    <path d="m-25.319 172.29 1.0534 0.62442c4.4263 2.6268 9.501 4.016 14.676 4.0188h0.011289c15.893 0 28.828-12.932 28.834-28.826 0.0025-7.7029-2.9937-14.945-8.4377-20.394-5.4444-5.448-12.683-8.4504-20.386-8.4536-15.905 0-28.84 12.93-28.846 28.824-0.0021 5.4465 1.5215 10.751 4.4083 15.34l0.68615 1.0908-2.9136 10.637zm-19.243 11.101 4.9216-17.971c-3.0357-5.2596-4.6327-11.226-4.6302-17.338 0.0074-19.122 15.569-34.679 34.693-34.679 9.2798 4e-3 17.99 3.6156 24.54 10.171 6.5493 6.5553 10.155 15.269 10.152 24.536-0.0081 19.121-15.573 34.681-34.692 34.681-0.00141 0 7.056e-4 0 0 0h-0.014817c-5.806-2e-3 -11.511-1.4584-16.578-4.222z" fill="#fff"/>
    <path d="m-43.075 148.1c-0.0021 5.8999 1.5395 11.66 4.4708 16.738l-4.7516 17.349 17.754-4.6553c4.8916 2.6656 10.399 4.0728 16.004 4.0746h0.014464c18.458 0 33.482-15.02 33.49-33.48 0.0035-8.9461-3.477-17.357-9.8005-23.686-6.3225-6.3281-14.731-9.815-23.691-9.8192-18.459 0-33.483 15.018-33.491 33.479m33.492 33.506h3.528e-4 -3.528e-4c-3.527e-4 0-7.055e-4 0 0 0" fill="url(#linearGradient2628)"/>
    <path d="m-44.271 148.09c-0.0021 6.1119 1.5949 12.079 4.6306 17.338l-4.922 17.97 18.391-4.8221c5.0673 2.7633 10.772 4.2196 16.578 4.222h0.014817c19.119 0 34.684-15.56 34.692-34.681 0.0032-9.2675-3.6026-17.981-10.152-24.536-6.5504-6.555-15.26-10.167-24.54-10.171-19.123 0-34.685 15.557-34.693 34.679m10.952 16.433-0.68651-1.0904c-2.8868-4.5896-4.4104-9.894-4.4083-15.34 0.0063-15.893 12.941-28.824 28.846-28.824 7.7022 3e-3 14.941 3.0057 20.386 8.4536 5.4444 5.4483 8.4402 12.691 8.4381 20.393-0.0071 15.894-12.942 28.826-28.835 28.826h-0.011289c-5.1749-3e-3 -10.25-1.3921-14.676-4.0185l-1.0534-0.62442-10.914 2.8614zm23.741 18.276h3.527e-4 -3.527e-4c-3.528e-4 0-7.056e-4 0 0 0" fill="url(#linearGradient2630)"/>
   </g>
   <g transform="matrix(.42257 0 0 .41618 -62.866 173.14)" fill="#fff">
    <g fill="#fff">
     <path d="m31.113 16.038v-12.048l19.971 20.08-19.971 20.08v-12.048s-17.735-4.292-29.849 16.064c0 0-3.02-15.536 10.51-26.794 0-1e-3 6.129-5.732 19.339-5.334z"/>
     <path d="m0.783 50.929-0.5-2.573c-0.031-0.161-2.974-16.25 10.852-27.753 0.202-0.191 6.116-5.585 18.674-5.585 0.102 0 0.203 0 0.305 1e-3v-13.453l22.381 22.504-22.382 22.504v-13.637c-0.662-0.098-1.725-0.213-3.071-0.213-5.761 0-16.657 2.073-24.918 15.953zm29.025-33.911c-11.776 0-17.297 5.033-17.352 5.084-9.545 7.944-10.578 18.172-10.452 23.047 12.361-18.058 29.123-14.072 29.344-14.019l0.765 0.185v10.411l17.561-17.656-17.561-17.657v10.654l-1.03-0.03c-0.433-0.013-0.857-0.019-1.275-0.019z"/>
    </g>
   </g>
  </g>
 </g>
</svg>
